<svg width="16" height="16" viewBox="0 0 16 16" fill="none" xmlns="http://www.w3.org/2000/svg">
    <path d="M4.00001 2C4.00001 3.105 3.105 4.00001 2 4.00001C0.895001 4.00001 0 3.105 0 2C0 0.895001 0.895001 0 2 0C3.105 0 4.00001 0.895001 4.00001 2Z" fill="white"/>
    <path d="M4.00001 8C4.00001 9.105 3.105 10 2 10C0.895001 10 0 9.105 0 8C0 6.895 0.895001 6 2 6C3.105 6 4.00001 6.895 4.00001 8Z" fill="white"/>
    <path d="M2 16.0001C3.105 16.0001 4.00001 15.1051 4.00001 14C4.00001 12.895 3.105 12 2 12C0.895001 12 0 12.895 0 14C0 15.1051 0.895001 16.0001 2 16.0001Z" fill="white"/>
    <path d="M10 2C10 3.105 9.105 4.00001 8 4.00001C6.895 4.00001 6 3.105 6 2C6 0.895001 6.895 0 8 0C9.105 0 10 0.895001 10 2Z" fill="white"/>
    <path d="M8 10C9.105 10 10 9.105 10 8C10 6.895 9.105 6 8 6C6.895 6 6 6.895 6 8C6 9.105 6.895 10 8 10Z" fill="white"/>
    <path d="M10 14C10 15.1051 9.105 16.0001 8 16.0001C6.895 16.0001 6 15.1051 6 14C6 12.895 6.895 12 8 12C9.105 12 10 12.895 10 14Z" fill="white"/>
    <path d="M14 4.00001C15.105 4.00001 16 3.105 16 2C16 0.895001 15.105 0 14 0C12.895 0 12 0.895001 12 2C12 3.105 12.895 4.00001 14 4.00001Z" fill="white"/>
    <path d="M16 8C16 9.105 15.105 10 14 10C12.895 10 12 9.105 12 8C12 6.895 12.895 6 14 6C15.105 6 16 6.895 16 8Z" fill="white"/>
    <path d="M14 16.0001C15.105 16.0001 16 15.1051 16 14C16 12.895 15.105 12 14 12C12.895 12 12 12.895 12 14C12 15.1051 12.895 16.0001 14 16.0001Z" fill="white"/>
</svg>
