<svg width="28" height="11" viewBox="0 0 28 11" fill="none" xmlns="http://www.w3.org/2000/svg">
    <path d="M9.66 10H7.266L3.262 3.938V10H0.868V0.172H3.262L7.266 6.262V0.172H9.66V10ZM18.6053 0.172V2.09H16.0013V10H13.6073V2.09H11.0033V0.172H18.6053ZM23.5028 10.098C22.7842 10.098 22.1402 9.98133 21.5708 9.748C21.0015 9.51467 20.5442 9.16933 20.1988 8.712C19.8628 8.25467 19.6855 7.704 19.6668 7.06H22.2148C22.2522 7.424 22.3782 7.704 22.5928 7.9C22.8075 8.08667 23.0875 8.18 23.4328 8.18C23.7875 8.18 24.0675 8.10067 24.2728 7.942C24.4782 7.774 24.5808 7.54533 24.5808 7.256C24.5808 7.01333 24.4968 6.81267 24.3288 6.654C24.1702 6.49533 23.9695 6.36467 23.7268 6.262C23.4935 6.15933 23.1575 6.04267 22.7188 5.912C22.0842 5.716 21.5662 5.52 21.1648 5.324C20.7635 5.128 20.4182 4.83867 20.1288 4.456C19.8395 4.07333 19.6948 3.574 19.6948 2.958C19.6948 2.04333 20.0262 1.32933 20.6888 0.816C21.3515 0.293333 22.2148 0.0319998 23.2788 0.0319998C24.3615 0.0319998 25.2342 0.293333 25.8968 0.816C26.5595 1.32933 26.9142 2.048 26.9608 2.972H24.3708C24.3522 2.65467 24.2355 2.40733 24.0208 2.23C23.8062 2.04333 23.5308 1.95 23.1948 1.95C22.9055 1.95 22.6722 2.02933 22.4948 2.188C22.3175 2.33733 22.2288 2.55667 22.2288 2.846C22.2288 3.16333 22.3782 3.41067 22.6768 3.588C22.9755 3.76533 23.4422 3.95667 24.0768 4.162C24.7115 4.37667 25.2248 4.582 25.6168 4.778C26.0182 4.974 26.3635 5.25867 26.6528 5.632C26.9422 6.00533 27.0868 6.486 27.0868 7.074C27.0868 7.634 26.9422 8.14267 26.6528 8.6C26.3728 9.05733 25.9622 9.42133 25.4208 9.692C24.8795 9.96267 24.2402 10.098 23.5028 10.098Z" fill="white"/>
</svg>
