<svg width="33" height="29" viewBox="0 0 33 29" fill="none" xmlns="http://www.w3.org/2000/svg">
    <path fill-rule="evenodd" clip-rule="evenodd" d="M14.2966 8.27708C14.3105 8.18875 14.3203 8.09869 14.3203 8.00688C14.3203 6.89826 13.2814 6 11.9999 6C10.7183 6 9.67946 6.89826 9.67946 8.00688C9.67946 8.09869 9.68927 8.18875 9.70311 8.27708C6.07245 9.1464 3.92183 12.0226 3.92183 15.4392C3.92183 15.4392 3.67256 22.3672 2.71874 24.3582C2.48632 24.8438 1 25.5476 1 25.5476H23C23 25.5476 21.6882 24.9637 21.4531 24.507C20.4215 22.5041 20.0782 15.4392 20.0782 15.4392C20.0779 12.0226 17.927 9.1464 14.2966 8.27708V8.27708Z" stroke="white" stroke-width="2"/>
    <path d="M14.8357 25.5476C14.8357 26.9022 13.5659 28 11.9999 28C10.4338 28 9.16406 26.902 9.16406 25.5476" stroke="white" stroke-width="2"/>
    <path d="M22 19.25C26.5563 19.25 30.25 15.5563 30.25 11C30.25 6.44365 26.5563 2.75 22 2.75C17.4437 2.75 13.75 6.44365 13.75 11C13.75 15.5563 17.4437 19.25 22 19.25Z" stroke="#FA0A0A" stroke-miterlimit="10"/>
    <path d="M24.0839 10.8285L21.3125 15.4687" stroke="#FA0A0A" stroke-linecap="round" stroke-linejoin="round"/>
    <path d="M22 12.0312C23.3289 12.0312 24.4062 10.9539 24.4062 9.625C24.4062 8.29606 23.3289 7.21875 22 7.21875C20.6711 7.21875 19.5938 8.29606 19.5938 9.625C19.5938 10.9539 20.6711 12.0312 22 12.0312Z" stroke="#FA0A0A" stroke-linecap="round" stroke-linejoin="round"/>
</svg>
