<svg width="28" height="28" viewBox="0 0 28 28" fill="none" xmlns="http://www.w3.org/2000/svg">
    <path d="M14 24.5C19.799 24.5 24.5 19.799 24.5 14C24.5 8.20101 19.799 3.5 14 3.5C8.20101 3.5 3.5 8.20101 3.5 14C3.5 19.799 8.20101 24.5 14 24.5Z" stroke="white" stroke-width="2" stroke-linecap="round" stroke-linejoin="round"/>
    <path d="M14 16.625V15.75C14.6922 15.75 15.3689 15.5447 15.9445 15.1601C16.5201 14.7756 16.9687 14.2289 17.2336 13.5894C17.4985 12.9499 17.5678 12.2461 17.4327 11.5672C17.2977 10.8883 16.9644 10.2646 16.4749 9.77513C15.9854 9.28564 15.3617 8.9523 14.6828 8.81725C14.0039 8.6822 13.3001 8.75152 12.6606 9.01642C12.0211 9.28133 11.4744 9.72993 11.0899 10.3055C10.7053 10.8811 10.5 11.5578 10.5 12.25" stroke="white" stroke-width="2" stroke-linecap="round" stroke-linejoin="round"/>
    <path d="M14 21.4375C14.7249 21.4375 15.3125 20.8499 15.3125 20.125C15.3125 19.4001 14.7249 18.8125 14 18.8125C13.2751 18.8125 12.6875 19.4001 12.6875 20.125C12.6875 20.8499 13.2751 21.4375 14 21.4375Z" fill="white"/>
</svg>
