<svg width="28" height="28" viewBox="0 0 28 28" fill="none" xmlns="http://www.w3.org/2000/svg">
    <path d="M20.2334 4.05426L15.6438 8.64384L16.2625 11.7374L19.3561 12.3562L23.9457 7.76657L23.9462 7.76638C24.5142 9.10735 24.6501 10.5921 24.3348 12.0139C24.0196 13.4357 23.2689 14.7238 22.1872 15.699C21.1056 16.6742 19.7468 17.2878 18.3001 17.4546C16.8533 17.6214 15.3906 17.3329 14.1154 16.6294L14.1156 16.6292L7.98114 23.7312C7.48876 24.223 6.82123 24.4991 6.12529 24.4989C5.42936 24.4987 4.76198 24.2222 4.26988 23.7301C3.77778 23.238 3.50124 22.5706 3.50104 21.8747C3.50084 21.1788 3.77701 20.5112 4.26883 20.0188L11.3707 13.8845L11.3705 13.8846C10.667 12.6094 10.3786 11.1467 10.5454 9.69992C10.7121 8.25316 11.3258 6.89439 12.301 5.81275C13.2762 4.7311 14.5643 3.9804 15.9861 3.66514C17.4079 3.34987 18.8926 3.48574 20.2336 4.05382L20.2334 4.05426Z" stroke="white" stroke-width="2" stroke-linecap="round" stroke-linejoin="round"/>
</svg>
